/* XPM */
static char *_xpm[]={
"31 31 9 1",
"  c white",
". c black",
"b c #333333333333",
"d c #ffff00000000",
"m c #666666666666",
"n c #999999999999",
"p c #cccccccccccc",
"r c #cccc00000000",
"t c #666633339999",
"mmmmmmmmmmmmmmmmmmmmmmmmmmmmmmm",
"m             pbdddddddddddddd.",
"m pp p p p p pnbdrrrrrrrrrrrrt.",
"m p p p  n n  nbdrrrrrrrrrrrrt.",
"m  p p pnmbmnpnbdrrrrrrrrrrrrt.",
"m p p pnbdddbbbdrrrrrrrrrrrrrt.",
"m  p p mdrrrdddrrrrrrrtttrrrrt.",
"m p p pbdrrrrrrrrrrrrtmbmdrrrt.",
"m  p p mdrrrtttrrrrrtb   bdrrt.",
"m p p p btttbbbtrrrtm p  nmdrt.",
"m  p p p mbm pnbdrrtb  p nbdrt.",
"m p p p       nbdrrtm p  nmdrt.",
"m  p p p p p pnbdrrrtb pnbdrrt.",
"m p p p p p p nbdrrrtb  nbdrrt.",
"mpnnpp p  nnnnnbdttttb pnbrttt.",
"mbbbbpp  nbbbbbbbbbbb   pnbbbb.",
"mddddb pnbddddtb       p     p.",
"mdrrtb  nbdrrrtb pp p p p p pn.",
"mdrrtb pnbdrrrtb p p p p p p n.",
"mdrtm p  nmdrrtb  pnnnp p p pn.",
"mdrtb  p nbdrrtbnnnmbmnp p p n.",
"mdrtm p  nmdrrrdbbbdddbnp p pn.",
"mdrrtbnnnbdrrrrrdddrrrtm p p n.",
"mdrrrtmbmdrrrrrrrrrrrrtb  p pn.",
"mdrrrrtttrrrrrrrtttrrrtm p p n.",
"mdrrrrrrrrrrrrrtbbbtttb p p pn.",
"mdrrrrrrrrrrrrtb   mbm   p p n.",
"mdrrrrrrrrrrrrtb      p p p pn.",
"mdrrrrrrrrrrrrtb p p p p p p n.",
"mdtttttttttttttbpnnnnnnnnnnnnn.",
"m.............................."
};

